<svg xmlns="http://www.w3.org/2000/svg" viewBox="0 0 480 460" width="480" height="460">
  <style>
    .bg { fill: #0d1117; stroke: #30363d; stroke-width: 1px; rx: 10px; }
    .header-bg { fill: #161b22; rx: 10px; }
    .btn-red { fill: #ff5f56; }
    .btn-yellow { fill: #ffbd2e; }
    .btn-green { fill: #27c93f; }
    .title { font-family: "Fira Code", monospace, sans-serif; font-size: 11px; fill: #8b949e; font-weight: 600; }
    .user-prompt { font-family: "Fira Code", monospace, sans-serif; font-size: 13px; fill: #7dcfff; font-weight: 700; }
    .section-title { font-family: "Fira Code", monospace, sans-serif; font-size: 12px; fill: #7dcfff; font-weight: 600; }
    .key { font-family: "Fira Code", monospace, sans-serif; font-size: 12px; fill: #ff9e64; font-weight: 600; }
    .val { font-family: "Fira Code", monospace, sans-serif; font-size: 12px; fill: #c0caf5; font-weight: 400; }
    .bullet-text { font-family: "Fira Code", monospace, sans-serif; font-size: 12px; fill: #73daca; font-weight: 400; }
    .divider { stroke: #565f89; stroke-width: 1px; stroke-dasharray: 4 2; }
  </style>
  <rect width="100%" height="100%" class="bg"/>
  <path d="M 0,10 A 10,10 0 0 1 10,0 L 470,0 A 10,10 0 0 1 480,10 L 480,32 L 0,32 Z" class="header-bg"/>
  <circle cx="18" cy="16" r="5" class="btn-red"/>
  <circle cx="32" cy="16" r="5" class="btn-yellow"/>
  <circle cx="46" cy="16" r="5" class="btn-green"/>
  <text x="240.0" y="20" text-anchor="middle" class="title">arnav-jain700:~$ neofetch</text>
  <text x="22" y="58" class="user-prompt">arnav@github</text>
  <line x1="22" y1="70" x2="458" y2="70" stroke="#30363d" stroke-width="1"/>
  <g>
    <text x="22" y="90" class="key">Now</text>
    <text x="117" y="90" class="val">Software Engineer & Builder</text>
  </g>
  <g>
    <text x="22" y="112" class="key">Prev</text>
    <text x="117" y="112" class="val">Full-Stack Engineer</text>
  </g>
  <g>
    <text x="22" y="134" class="key">Also</text>
    <text x="117" y="134" class="val">Open-Source Contributor</text>
  </g>
  <g>
    <text x="22" y="156" class="key">Edu</text>
    <text x="117" y="156" class="val">B.Tech Computer Science</text>
  </g>
  <g>
    <text x="22" y="184" class="section-title">- Stack</text>
    <line x1="82.5" y1="180" x2="458" y2="180" class="divider"/>
  </g>
  <g>
    <text x="22" y="204" class="key">Frontend</text>
    <text x="117" y="204" class="val">React, Next.js, TypeScript, Tailwind</text>
  </g>
  <g>
    <text x="22" y="226" class="key">Backend</text>
    <text x="117" y="226" class="val">Node.js, Python, FastAPI, Postgres</text>
  </g>
  <g>
    <text x="22" y="248" class="key">AI / ML</text>
    <text x="117" y="248" class="val">OpenAI API, LangChain, PyTorch</text>
  </g>
  <g>
    <text x="22" y="270" class="key">Cloud</text>
    <text x="117" y="270" class="val">AWS, Docker, Vercel, Linux</text>
  </g>
  <g>
    <text x="22" y="298" class="section-title">- Highlights</text>
    <line x1="120.0" y1="294" x2="458" y2="294" class="divider"/>
  </g>
  <g>
    <text x="22" y="318" class="bullet-text">• Built Living Terminal GitHub Profile README</text>
  </g>
  <g>
    <text x="22" y="338" class="bullet-text">• Active developer & open-source contributor</text>
  </g>
</svg>